name GIL02_free2EmgEnv.mot
datacolumns 51
datarows 8
range 0.36296296 0.36944446
endheader
                time	   rect_fem_l_emgRec	   rect_fem_l_emgEnv	   rect_fem_l_emgAve	   rect_fem_l_emgSDp	   rect_fem_l_emgSDm	   rect_fem_r_emgRec	   rect_fem_r_emgEnv	   rect_fem_r_emgAve	   rect_fem_r_emgSDp	   rect_fem_r_emgSDm	   med_hams_l_emgRec	   med_hams_l_emgEnv	   med_hams_l_emgAve	   med_hams_l_emgSDp	   med_hams_l_emgSDm	   med_hams_r_emgRec	   med_hams_r_emgEnv	   med_hams_r_emgAve	   med_hams_r_emgSDp	   med_hams_r_emgSDm	   lat_hams_l_emgRec	   lat_hams_l_emgEnv	   lat_hams_l_emgAve	   lat_hams_l_emgSDp	   lat_hams_l_emgSDm	   lat_hams_r_emgRec	   lat_hams_r_emgEnv	   lat_hams_r_emgAve	   lat_hams_r_emgSDp	   lat_hams_r_emgSDm	    tib_ant_l_emgRec	    tib_ant_l_emgEnv	    tib_ant_l_emgAve	    tib_ant_l_emgSDp	    tib_ant_l_emgSDm	    tib_ant_r_emgRec	    tib_ant_r_emgEnv	    tib_ant_r_emgAve	    tib_ant_r_emgSDp	    tib_ant_r_emgSDm	    gas_sol_l_emgRec	    gas_sol_l_emgEnv	    gas_sol_l_emgAve	    gas_sol_l_emgSDp	    gas_sol_l_emgSDm	    gas_sol_r_emgRec	    gas_sol_r_emgEnv	    gas_sol_r_emgAve	    gas_sol_r_emgSDp	    gas_sol_r_emgSDm	
          0.36296296	          0.02786086	          0.04449987	          0.02545340	          0.06058091	         -0.00967410	          0.04346822	          0.16892102	          0.14558510	          0.23697766	          0.05419255	          0.34573575	          0.49150780	          0.36727801	          0.55581124	          0.17874478	          0.00020616	          0.24331630	          0.14041248	          0.24241516	          0.03840980	          0.01011925	          0.23163402	          0.20181058	          0.26196259	          0.14165858	          0.00723067	          0.06759106	          0.15713222	          0.36525774	         -0.05099329	          0.13238968	          0.22429332	          0.32070732	          0.40645726	          0.23495738	          0.05094030	          0.15706873	          0.31869736	          0.60702625	          0.03036848	          0.01680763	          0.02222100	          0.01660914	          0.03986773	         -0.00664945	          0.25192664	          0.85081873	          0.75031430	          0.89004551	          0.61058308	
          0.36388889	          0.08155944	          0.04380672	          0.02570533	          0.06111668	         -0.00970602	          0.07403762	          0.16904629	          0.14743495	          0.23886811	          0.05600179	          0.26317954	          0.49054092	          0.36966899	          0.55950703	          0.17983095	          0.03029926	          0.25491189	          0.14229934	          0.24580701	          0.03879167	          0.13419636	          0.23258524	          0.20146167	          0.26101875	          0.14190460	          0.00554992	          0.06993109	          0.15913109	          0.36991005	         -0.05164786	          0.16528817	          0.22285879	          0.31776148	          0.40322809	          0.23229487	          0.05388685	          0.15622537	          0.31889153	          0.60541889	          0.03236416	          0.01621906	          0.02249928	          0.01627016	          0.03951523	         -0.00697491	          0.59641137	          0.86201365	          0.75247675	          0.89191607	          0.61303744	
          0.36481482	          0.03588618	          0.04308122	          0.02597356	          0.06166797	         -0.00972084	          0.09315504	          0.16928807	          0.14932732	          0.24081807	          0.05783658	          0.17572048	          0.48929982	          0.37204534	          0.56317426	          0.18091641	          0.08756461	          0.26671097	          0.14419678	          0.24920840	          0.03918516	          0.07480432	          0.23332303	          0.20114209	          0.26012331	          0.14216086	          0.01044119	          0.07235136	          0.16114499	          0.37457064	         -0.05228066	          0.08460594	          0.22156962	          0.31488168	          0.40007096	          0.22969241	          0.02793229	          0.15533953	          0.31905657	          0.60370648	          0.03440666	          0.00838135	          0.02277508	          0.01593791	          0.03916640	         -0.00729057	          0.80923956	          0.87287944	          0.75458550	          0.89372607	          0.61544494	
          0.36574075	          0.03247832	          0.04232474	          0.02625821	          0.06223479	         -0.00971837	          0.11083261	          0.16965320	          0.15126094	          0.24282598	          0.05969591	          0.11699880	          0.48778963	          0.37440675	          0.56681229	          0.18200122	          0.12921547	          0.27869707	          0.14610383	          0.25261765	          0.03959001	          0.04477568	          0.23384675	          0.20085230	          0.25927695	          0.14242766	          0.03094778	          0.07485033	          0.16317259	          0.37923694	         -0.05289176	          0.03093117	          0.22042925	          0.31206888	          0.39698689	          0.22715086	          0.02474467	          0.15441454	          0.31919354	          0.60189164	          0.03649545	          0.00337647	          0.02304727	          0.01561252	          0.03882134	         -0.00759630	          1.00000000	          0.88339529	          0.75663990	          0.89547496	          0.61780484	
          0.36666667	          0.07576703	          0.04153882	          0.02655938	          0.06281718	         -0.00969842	          0.10574449	          0.17014828	          0.15323463	          0.24489031	          0.06157895	          0.15516672	          0.48601662	          0.37675285	          0.57042053	          0.18308517	          0.10284111	          0.29085286	          0.14801951	          0.25603303	          0.04000598	          0.03466438	          0.23415634	          0.20059259	          0.25848006	          0.14270512	          0.03567438	          0.07742622	          0.16521268	          0.38390626	         -0.05348091	          0.03988947	          0.21944102	          0.30932373	          0.39397667	          0.22467079	          0.06160087	          0.15345382	          0.31930360	          0.59997720	          0.03863001	          0.01003638	          0.02331469	          0.01529412	          0.03848022	         -0.00789197	          0.85771064	          0.89354148	          0.75863940	          0.89716239	          0.62011640	
          0.36759260	          0.04695115	          0.04072521	          0.02687721	          0.06341519	         -0.00966078	          0.01434674	          0.17077961	          0.15524706	          0.24700946	          0.06348467	          0.09245055	          0.48398825	          0.37908325	          0.57399829	          0.18416820	          0.01416387	          0.30316022	          0.14994283	          0.25945283	          0.04043283	          0.00448102	          0.23425242	          0.20036332	          0.25773318	          0.14299346	          0.01143921	          0.08007702	          0.16726382	          0.38857578	         -0.05404814	          0.05008427	          0.21860812	          0.30664709	          0.39104121	          0.22225297	          0.08947301	          0.15246086	          0.31938806	          0.59796616	          0.04080996	          0.00669764	          0.02357620	          0.01498284	          0.03814313	         -0.00817746	          0.30542125	          0.90329943	          0.76058322	          0.89878778	          0.62237866	
          0.36851853	          0.00686120	          0.03988584	          0.02721178	          0.06402886	         -0.00960529	          0.13721548	          0.17155320	          0.15729696	          0.24918175	          0.06541216	          0.03099500	          0.48171310	          0.38139743	          0.57754475	          0.18525010	          0.06280202	          0.31560023	          0.15187274	          0.26287527	          0.04087021	          0.01700171	          0.23413623	          0.20016488	          0.25703686	          0.14329291	          0.01587578	          0.08280047	          0.16932468	          0.39324278	         -0.05459341	          0.05995299	          0.21793364	          0.30403975	          0.38818142	          0.21989807	          0.11016358	          0.15143920	          0.31944817	          0.59586155	          0.04303479	          0.00125152	          0.02383064	          0.01467878	          0.03781021	         -0.00845264	          0.33955617	          0.91265173	          0.76247096	          0.90035090	          0.62459102	
          0.36944446	          0.01313265	          0.03902287	          0.02756323	          0.06465823	         -0.00953178	          0.14757348	          0.17247469	          0.15938288	          0.25140537	          0.06736039	          0.06323231	          0.47920092	          0.38369527	          0.58105959	          0.18633096	          0.11014957	          0.32815322	          0.15380824	          0.26629854	          0.04131793	          0.03112361	          0.23380964	          0.19999759	          0.25639151	          0.14360367	          0.02619952	          0.08559410	          0.17139384	          0.39790428	         -0.05511659	          0.06068770	          0.21742052	          0.30150232	          0.38539802	          0.21760661	          0.10886307	          0.15039248	          0.31948522	          0.59366655	          0.04530388	          0.00727509	          0.02407686	          0.01438208	          0.03748157	         -0.00871741	          0.81588664	          0.92158225	          0.76430196	          0.90185125	          0.62675266	
